<?xml version="1.0" standalone="no"?><!DOCTYPE svg PUBLIC "-//W3C//DTD SVG 1.1//EN" "http://www.w3.org/Graphics/SVG/1.1/DTD/svg11.dtd"><svg t="1672214045783" class="icon" viewBox="0 0 1025 1024" version="1.1" xmlns="http://www.w3.org/2000/svg" p-id="1833" xmlns:xlink="http://www.w3.org/1999/xlink" width="200.1953125" height="200"><path d="M14.576374 526.5408c8.0896 0 14.5408-6.5536 14.5408-14.5408 0-28.0576 2.56-56.2176 7.5776-83.6608C76.937974 210.432 267.401974 52.3264 489.814774 52.3264c136.704 0 265.5232 60.0064 353.3824 164.7616 5.12 6.144 14.336 6.9632 20.48 1.8432 6.144-5.12 6.9632-14.336 1.8432-20.48C772.029174 87.1424 635.120374 23.2448 489.814774 23.2448 253.373174 23.2448 50.825974 191.3856 8.125174 423.1168 2.800374 452.1984 0.035574 482.0992 0.035574 512 0.035574 519.9872 6.589174 526.5408 14.576374 526.5408zM911.395574 233.472c-2.7648-7.4752-11.1616-11.264-18.7392-8.4992l-152.6784 56.9344c2.6624-5.0176 2.2528-11.4688-1.7408-16.0768-61.7472-73.6256-152.3712-115.9168-248.5248-115.9168-156.3648 0-290.4064 111.2064-318.6688 264.4992-3.584 19.2512-5.3248 39.0144-5.3248 58.7776 0 7.9872 6.5536 14.5408 14.5408 14.5408 8.0896 0 14.5408-6.5536 14.5408-14.5408 0-18.0224 1.6384-36.0448 4.9152-53.5552 25.7024-139.4688 147.6608-240.7424 289.9968-240.7424 87.552 0 169.984 38.4 226.2016 105.472 1.6384 1.9456 3.6864 3.3792 5.9392 4.1984L9.456374 554.3936c-7.5776 2.7648-11.3664 11.1616-8.4992 18.7392 2.1504 5.8368 7.7824 9.4208 13.6192 9.4208 1.7408 0 3.3792-0.3072 5.12-0.9216l883.2-329.4208C910.371574 249.344 914.262774 241.0496 911.395574 233.472zM1023.113974 468.1728c-2.7648-7.4752-11.264-11.264-18.7392-8.4992L121.174774 788.992c-7.5776 2.7648-11.3664 11.1616-8.4992 18.7392 0.3072 0.8192 0.7168 1.6384 1.1264 2.3552-3.072 5.12-2.7648 11.8784 1.4336 16.7936 93.3888 110.4896 229.888 173.8752 374.5792 173.8752 270.0288 0 489.6768-219.2384 489.6768-488.7552 0-4.096-1.7408-7.7824-4.4032-10.4448l39.5264-14.7456C1022.089974 484.0448 1025.878774 475.648 1023.113974 468.1728zM803.670774 565.5552c-7.7824 155.4432-136.9088 279.552-294.5024 279.552-80.6912 0-157.0816-32.768-212.5824-90.4192L803.670774 565.5552zM950.409974 512c0 253.44-206.6432 459.6736-460.5952 459.6736-134.144 0-260.8128-57.9584-348.4672-159.1296l125.8496-46.8992c61.5424 69.0176 149.2992 108.4416 242.0736 108.4416 177.3568 0 321.9456-143.0528 323.9936-319.5904l117.248-43.7248C950.409974 511.1808 950.409974 511.5904 950.409974 512zM193.469174 578.3552l-16.2816 6.2464 41.3696 108.4416c10.1376 26.7264 23.3472 28.5696 57.9584 15.36l80.9984-31.0272c35.328-13.5168 37.9904-27.9552 26.9312-69.2224-5.12 0.9216-13.2096 1.1264-18.7392-0.3072 10.3424 36.0448 9.5232 44.544-14.0288 53.6576l-82.3296 31.5392c-23.3472 8.9088-29.2864 7.7824-34.5088-5.9392L213.027574 629.76l113.0496-43.3152 4.096 10.8544 16.4864-6.3488-37.888-99.328L151.587574 551.8336l6.0416 15.872 140.8-53.8624 21.7088 56.832-113.0496 43.3152L193.469174 578.3552zM394.685174 558.6944c4.9152-11.0592 9.5232-23.7568 13.1072-37.376l48.2304 126.464 15.36-5.9392-57.1392-149.7088c2.8672-17.8176 4.8128-36.1472 5.12-53.6576l-16.9984 1.024c-0.1024 37.5808-8.704 77.9264-22.7328 106.9056C384.035574 549.0688 391.715574 555.6224 394.685174 558.6944zM474.659574 625.3568c4.608 1.7408 11.776 6.656 14.7456 9.5232 19.968-15.36 32.0512-30.4128 38.8096-45.2608 27.136 4.8128 57.4464 2.8672 89.7024-4.3008 0.3072-5.632 1.8432-13.4144 3.9936-18.2272-32.1536 8.0896-62.2592 11.1616-88.4736 7.4752 3.8912-15.872 2.3552-31.5392-1.6384-47.104l56.32-21.6064-22.6304-59.4944-55.1936 21.1968-8.0896-21.2992 62.3616-23.8592-5.632-14.7456-62.3616 23.8592-8.8064-23.2448-15.7696 6.0416 8.8064 23.2448-59.8016 22.9376 5.632 14.7456 59.8016-22.9376 8.0896 21.2992-53.4528 20.48 22.6304 59.4944 52.4288-20.0704c3.072 12.4928 4.096 25.088 1.024 37.888-14.5408-3.584-27.5456-9.6256-38.2976-18.432l-11.776 9.5232c13.312 10.8544 28.3648 18.432 44.8512 23.3472C505.481974 598.6304 493.808374 611.7376 474.659574 625.3568zM473.430774 534.2208l-12.288-32.1536L499.747574 487.424l8.4992 22.3232c1.2288 3.2768 2.4576 6.5536 3.4816 9.8304L473.430774 534.2208zM515.619574 481.3824l39.8336-15.2576 12.288 32.1536-40.0384 15.36c-1.024-3.3792-2.2528-6.5536-3.4816-9.8304L515.619574 481.3824zM797.833974 497.0496c-3.8912 1.536-18.5344 7.3728-33.9968 12.4928 3.7888 3.4816 9.1136 9.4208 11.3664 13.5168 20.48-7.5776 32.8704-12.5952 39.3216-18.0224 5.8368-5.4272 6.8608-11.3664 2.8672-21.7088l-61.44-160.9728-157.696 60.416 29.7984 78.1312c11.4688 30.208 23.8592 69.2224 10.3424 105.1648 4.1984 0.6144 12.8 3.584 16.384 5.9392 9.4208-24.7808 7.3728-52.3264 1.4336-77.6192l54.1696-20.6848 24.3712 64 16.0768-6.144-24.3712-64 58.2656-22.3232 16.7936 44.032C803.056374 493.3632 802.032374 495.2064 797.833974 497.0496zM746.019574 343.8592l13.2096 34.7136-58.2656 22.3232-13.2096-34.7136L746.019574 343.8592zM619.965174 392.0896l51.712-19.8656 13.2096 34.7136-51.712 19.8656L619.965174 392.0896zM651.913974 478.4128c-2.4576-8.2944-5.2224-16.384-7.9872-23.552l-4.9152-12.8 51.712-19.8656 13.7216 36.0448L651.913974 478.4128zM720.624374 452.096l-13.7216-36.0448 58.2656-22.3232 13.7216 36.0448L720.624374 452.096z" p-id="1834" fill="#D2D2D2"></path></svg>