<?xml version="1.0" standalone="no"?><!DOCTYPE svg PUBLIC "-//W3C//DTD SVG 1.1//EN" "http://www.w3.org/Graphics/SVG/1.1/DTD/svg11.dtd"><svg t="1671773509940" class="icon" viewBox="0 0 1024 1024" version="1.1" xmlns="http://www.w3.org/2000/svg" p-id="1648" xmlns:xlink="http://www.w3.org/1999/xlink" width="200" height="200"><path d="M986.547801 768.377371H840.487724V622.297301c0-18.263758-14.605008-36.517518-36.517519-36.517519s-36.517518 14.605008-36.517518 36.517519v146.08007H621.372617c-18.263758 0-36.517518 14.605008-36.517519 36.517518s14.605008 36.517518 36.517519 36.517519h146.08007v146.070074c0 18.263758 14.605008 36.517518 36.517518 36.517518s36.517518-14.615005 36.517519-36.517518V841.412408h146.070074c18.263758 0 36.517518-14.615005 36.517518-36.517519 0-21.91251-14.615005-36.517518-36.527515-36.517518z m-182.587592-474.737736C803.960209 132.954557 672.495143 1.489491 511.820062 1.489491 351.14498 1.489491 219.679914 132.954557 219.679914 293.639635c0 102.245053 51.122526 193.543847 131.465066 244.666374C146.634881 604.04354 0.564807 797.587387 0.564807 1024h73.035037c0-241.017621 197.202597-438.220218 438.220218-438.220218 160.675082 0.009997 292.140147-131.465066 292.140147-292.140147zM511.820062 512.744745c-120.50881 0-219.105111-98.5963-219.105111-219.10511 0-120.50881 98.5963-219.115107 219.105111-219.115107C632.328872 74.524528 730.925172 173.130824 730.925172 293.639635s-98.5963 219.105111-219.10511 219.10511z m0 0" fill="#FEFFFE" p-id="1649" data-spm-anchor-id="a313x.7781069.0.i3" class="selected"></path></svg>