<?xml version="1.0" standalone="no"?><!DOCTYPE svg PUBLIC "-//W3C//DTD SVG 1.1//EN" "http://www.w3.org/Graphics/SVG/1.1/DTD/svg11.dtd"><svg t="1672214059849" class="icon" viewBox="0 0 1025 1024" version="1.1" xmlns="http://www.w3.org/2000/svg" p-id="2350" xmlns:xlink="http://www.w3.org/1999/xlink" width="200.1953125" height="200"><path d="M14.576374 526.5408c8.0896 0 14.5408-6.5536 14.5408-14.5408 0-28.0576 2.56-56.2176 7.5776-83.6608C76.937974 210.432 267.401974 52.3264 489.814774 52.3264c136.704 0 265.5232 60.1088 353.3824 164.7616 5.12 6.144 14.336 6.9632 20.48 1.8432 6.144-5.12 6.9632-14.336 1.8432-20.48C772.029174 87.1424 635.120374 23.2448 489.814774 23.2448 253.373174 23.2448 50.825974 191.3856 8.125174 423.1168 2.800374 452.1984 0.035574 482.0992 0.035574 512 0.035574 519.9872 6.589174 526.5408 14.576374 526.5408zM911.395574 233.472c-2.8672-7.4752-11.1616-11.264-18.7392-8.4992l-152.6784 56.9344c2.6624-5.0176 2.2528-11.4688-1.7408-16.0768-61.7472-73.6256-152.3712-115.9168-248.5248-115.9168-156.3648 0-290.4064 111.2064-318.6688 264.4992-3.584 19.2512-5.3248 39.0144-5.3248 58.7776 0 7.9872 6.5536 14.5408 14.5408 14.5408 8.0896 0 14.5408-6.5536 14.5408-14.5408 0-18.0224 1.6384-36.0448 4.9152-53.5552 25.7024-139.4688 147.6608-240.7424 289.9968-240.7424 87.552 0 169.984 38.4 226.2016 105.472 1.6384 1.9456 3.6864 3.3792 5.9392 4.1984L9.456374 554.3936c-7.5776 2.7648-11.3664 11.1616-8.4992 18.7392 2.1504 5.8368 7.7824 9.4208 13.6192 9.4208 1.7408 0 3.3792-0.3072 5.12-0.9216l883.2-329.4208C910.371574 249.344 914.262774 241.0496 911.395574 233.472zM1023.113974 468.1728c-2.7648-7.4752-11.264-11.264-18.7392-8.4992L121.174774 788.992c-7.5776 2.7648-11.3664 11.1616-8.4992 18.7392 0.3072 0.8192 0.7168 1.6384 1.1264 2.3552-3.072 5.12-2.7648 11.8784 1.4336 16.7936 93.3888 110.4896 229.888 173.8752 374.5792 173.8752 270.0288 0 489.7792-219.2384 489.7792-488.7552 0-4.096-1.7408-7.7824-4.4032-10.4448l39.5264-14.7456C1022.089974 484.0448 1025.878774 475.648 1023.113974 468.1728zM803.670774 565.5552c-7.68 155.4432-136.9088 279.552-294.5024 279.552-80.6912 0-157.0816-32.768-212.5824-90.4192L803.670774 565.5552zM950.409974 512c0 253.44-206.6432 459.6736-460.5952 459.6736-134.144 0-260.8128-57.9584-348.4672-159.1296l125.8496-46.8992c61.5424 69.0176 149.2992 108.4416 242.0736 108.4416 177.3568 0 321.9456-143.0528 323.9936-319.5904l117.248-43.7248C950.409974 511.1808 950.409974 511.5904 950.409974 512zM222.243574 576.1024l-16.5888 6.656 40.2432 99.9424c8.192 20.2752 22.016 26.4192 41.6768 18.5344l102.4-41.0624c17.7152-7.0656 25.6-18.6368 23.552-34.7136-1.1264-8.8064-3.4816-20.1728-7.0656-34.2016-6.7584 0.7168-13.0048 1.024-18.8416 0.9216 4.096 13.5168 6.5536 24.6784 7.3728 33.3824 0.9216 8.8064-4.1984 15.4624-15.2576 19.968l-94.9248 38.0928c-11.1616 4.5056-19.1488 0.8192-23.8592-10.9568l-22.528-55.9104 115.0976-46.1824 4.7104 11.6736 16.1792-6.4512-36.0448-89.4976-154.9312 62.1568 5.7344 14.2336L328.022774 506.88l19.8656 49.3568-115.0976 46.1824L222.243574 576.1024zM425.712374 479.1296c-15.6672-10.0352-29.696-18.2272-42.0864-24.576l-8.192 12.9024c12.4928 7.4752 26.0096 16.2816 40.3456 26.4192C418.544374 489.1648 421.821174 484.2496 425.712374 479.1296zM505.789174 540.2624l9.3184-15.1552c-11.5712-7.2704-27.9552-16.9984-49.0496-29.184l-8.2944 13.312C472.816374 518.144 488.893174 528.4864 505.789174 540.2624zM563.747574 577.024l-52.1216 19.7632c-18.8416 7.168-35.2256 6.9632-49.2544-0.6144l-33.5872-83.2512-37.1712 14.9504 5.5296 13.824 22.3232-8.9088 26.624 66.048c-3.8912 7.2704-8.9088 17.408-15.1552 30.5152l14.5408 12.9024c5.9392-17.8176 10.1376-28.8768 12.5952-33.1776 16.1792 10.1376 35.328 10.9568 57.5488 2.3552l49.7664-18.6368 56.1152-23.3472c-0.1024-5.7344-0.1024-11.6736 0-17.6128L563.747574 577.024zM440.867574 489.472l82.5344-33.1776 30.3104 75.1616c3.7888 8.9088 1.6384 14.9504-6.3488 18.1248-8.8064 3.584-18.6368 6.8608-29.2864 9.9328 3.8912 6.0416 7.168 11.3664 9.8304 16.1792 11.264-4.4032 20.992-8.192 29.3888-11.5712 15.872-6.3488 20.5824-17.8176 13.9264-34.4064l-32.1536-79.7696 33.0752-13.312-5.632-14.0288-33.0752 13.312-14.7456-36.6592-15.5648 6.2464 14.7456 36.6592L435.235574 475.5456 440.867574 489.472zM713.661174 524.9024l5.8368-15.0528c-10.6496-3.584-21.9136-6.9632-33.4848-9.9328l-5.4272 13.1072C692.464374 516.608 703.523574 520.6016 713.661174 524.9024zM645.769974 568.0128c6.8608-13.7216 13.9264-30.208 21.2992-49.3568l-15.4624-4.5056c-5.4272 16.5888-12.0832 32.5632-20.0704 47.8208C637.065974 563.9168 641.878774 565.9648 645.769974 568.0128zM714.582774 469.4016l-15.36 6.144-35.7376-88.7808 15.5648-6.2464-5.2224-13.1072-15.5648 6.2464-9.728-24.1664-14.2336 5.7344 9.728 24.1664-40.0384 16.0768-9.4208-23.4496-14.2336 5.7344 9.4208 23.4496-15.7696 6.3488 5.2224 13.1072 15.7696-6.3488 35.7376 88.7808-18.1248 7.2704 5.2224 13.1072 101.9904-40.96L714.582774 469.4016zM609.110774 408.6784l40.0384-16.0768 8.6016 21.2992-40.0384 16.0768L609.110774 408.6784zM622.627574 442.2656l40.0384-16.0768 8.6016 21.2992-40.0384 16.0768L622.627574 442.2656zM644.848374 497.3568l-8.704-21.504 40.0384-16.0768 8.704 21.504L644.848374 497.3568zM785.750774 491.7248c-4.096 1.6384-11.0592 3.8912-20.7872 6.7584 3.2768 5.2224 6.0416 9.8304 8.2944 13.824 7.0656-2.3552 14.2336-5.0176 21.4016-7.8848 14.336-5.7344 18.5344-16.1792 12.3904-31.3344l-62.7712-155.7504-68.096 27.3408 28.7744 71.4752c12.288 30.5152 19.3536 52.4288 21.1968 66.048 2.3552 13.9264 0.7168 28.9792-4.9152 45.056 5.632 1.8432 10.9568 3.8912 15.872 6.144 8.192-24.8832 7.2704-51.6096-2.56-80.1792l41.1648-16.4864 16.2816 40.3456C794.864374 483.9424 792.816374 488.96 785.750774 491.7248zM695.638774 352.0512l39.6288-15.872 15.0528 37.4784-39.6288 15.872L695.638774 352.0512zM730.352374 440.1152c-2.8672-8.8064-7.68-21.504-14.5408-37.888l39.6288-15.872 15.1552 37.6832L730.352374 440.1152z" p-id="2351" fill="#D2D2D2"></path></svg>