<?xml version="1.0" standalone="no"?><!DOCTYPE svg PUBLIC "-//W3C//DTD SVG 1.1//EN" "http://www.w3.org/Graphics/SVG/1.1/DTD/svg11.dtd"><svg t="1671615462211" class="icon" viewBox="0 0 1024 1024" version="1.1" xmlns="http://www.w3.org/2000/svg" p-id="5350" xmlns:xlink="http://www.w3.org/1999/xlink" width="200" height="200"><path d="M796.6 120.6H227.4c-88.9 0-161.2 72.3-161.2 161.2v460.5c0 88.9 72.3 161.2 161.2 161.2h569.2c88.9 0 161.2-72.3 161.2-161.2V281.8c-0.1-88.9-72.4-161.2-161.2-161.2z m-569.2 46.1h569.2c63.5 0 115.1 51.6 115.1 115.1v91.8l-276.5 256-216.7-264.8-306.2 253.3V281.8c0-63.5 51.6-115.1 115.1-115.1z" fill="#B98821" p-id="5351"></path><path d="M699.2 456.5c56 0 101.5-45.5 101.5-101.5s-45.5-101.5-101.5-101.5S597.7 299 597.7 355s45.5 101.5 101.5 101.5z" fill="#B98821" p-id="5352"></path></svg>