<?xml version="1.0" standalone="no"?><!DOCTYPE svg PUBLIC "-//W3C//DTD SVG 1.1//EN" "http://www.w3.org/Graphics/SVG/1.1/DTD/svg11.dtd"><svg t="1671615403653" class="icon" viewBox="0 0 1024 1024" version="1.1" xmlns="http://www.w3.org/2000/svg" p-id="4230" xmlns:xlink="http://www.w3.org/1999/xlink" width="200" height="200"><path d="M277.333333 228.629333c104.064-52.373333 189.397333-48.576 256 11.370667 64.64 58.176 146.922667 63.466667 246.826667 15.872a21.333333 21.333333 0 0 1 30.506667 19.264v294.357333a21.333333 21.333333 0 0 1-10.346667 18.282667c-95.616 57.472-184.618667 55.338667-266.986667-6.442667-76.373333-57.28-158.442667-63.296-246.229333-18.026666a21.248 21.248 0 0 1-9.770667 2.368V800a32 32 0 0 1-64 0v-576a32 32 0 0 1 64 0v4.629333z" fill="#E87662" p-id="4231"></path></svg>